<?xml version="1.0" encoding="UTF-8"?>
<svg width="707.08" height="601.53" version="1.1" xmlns="http://www.w3.org/2000/svg">
 <path d="m0 0h706.31c0.37975 0.69859 0.52778 1.1754 0.56317 1.9792 0.2596 5.9096 0.0418 11.936 0.0418 17.858l2e-3 34.22 5e-3 104.46-3e-3 319.48-4e-3 87.6-2e-3 24.184c0 3.3084 0.43659 7.2781-0.0954 10.492-0.0794 0.48326-0.28105 0.8426-0.5074 1.2616h-706.31z" fill="#1f232b" stroke-width="1.0993"/>
 <path d="m130.84 221.06c0.985-0.958 2.17-2.531 3.45-3.029 3.221-1.253 13.529-1.668 16.712-0.44901 0.746 0.809 0.692 1.246 0.868 2.312-5.092-1.13-15.919 0.087-21.03 1.166z" fill="#49545e"/>
 <defs>
  <linearGradient id="gradient_0" x1="79.062" x2="79.205" y1="144.73" y2="152.5" gradientTransform="translate(23.419 35.945)" gradientUnits="userSpaceOnUse">
   <stop stop-color="#536069" offset="0"/>
   <stop stop-color="#7F888A" offset="1"/>
  </linearGradient>
 </defs>
 <path d="m93.745 173.74c6.3466-0.52699 12.824-0.772 19.18-0.31-0.1124 2.255-0.2848 4.522-0.3317 6.778l0.01 1.857c0.4971 4.758 1.2646 9.121 1.1219 13.931-0.0959-0.118-0.1994-0.231-0.2877-0.356-1.0048-1.416 0.2961-7.329-1.1306-7.621-2.9416-0.602-7.1048 0.654-10.15 0.801-2.7286 0.132-6.1134-0.497-8.7318 0.116-0.0373 2.314 0.1713 5.105-0.4889 7.324-0.2584-4.246-0.4372-8.46-0.0377-12.704 0.045-2.969 1.3558-6.988 0.8473-9.816z" fill="url(#gradient_0)"/>
 <path d="m94.928 181.07 0.3767-0.574c5.2748-1.879 11.854-1.039 17.289-0.296l0.01 1.857c-0.178-0.426-0.2968-0.651-0.6376-0.98-2.0323-1.962-14.021-0.135-17.038-7e-3z" fill="#49545e"/>
 <defs>
  <linearGradient id="gradient_1" x1="79.582" x2="79.774" y1="138.27" y2="143.27" gradientTransform="translate(23.419 35.945)" gradientUnits="userSpaceOnUse">
   <stop stop-color="#263243" offset="0"/>
   <stop stop-color="#42525E" offset="1"/>
  </linearGradient>
 </defs>
 <path d="m93.745 173.74c6.3466-0.52699 12.824-0.772 19.18-0.31-0.1124 2.255-0.2848 4.522-0.3317 6.778-5.4355-0.743-12.014-1.583-17.289 0.296l-0.3767 0.574 0.6556 0.364c-0.1198 0.055-0.2404 0.108-0.3595 0.164-1.0969 0.517-1.6828 0.87-2.3259 1.95 0.045-2.969 1.3558-6.988 0.8473-9.816z" fill="url(#gradient_1)"/>
 <path d="m361.55 181.74c8.16-0.149 16.745-0.247 24.854 0.636 0.042 6.443-0.255 12.91-0.301 19.358-8.03-1.292-15.971-1.232-24.065-0.74199-0.014-6.42 0.044-12.849-0.488-19.252z" fill="#88969a"/>
 <path d="m397.79 180.88c9.838 0.125 19.823-0.045 29.624 0.815q-0.17 8.921-0.636 17.832c-4.611 0.113-9.317-0.30099-13.935-0.425-4.861-0.13-9.678 0.054-14.531 0.33q0.042-9.285-0.522-18.552z" fill="#f6f7f3"/>
 <path d="m257.22 91.049c2.758 0.1078 5.039 0.7003 7.27 2.3893 3.12 2.3615 5.138 6.2603 5.62 10.106q0.08 0.6868 0.092 1.3781 0.011 0.6913-0.045 1.3804-0.057 0.689-0.182 1.3691t-0.316 1.3445q-0.191 0.6645-0.447 1.3067-0.256 0.6423-0.575 1.2561-0.318 0.6138-0.696 1.1931-0.377 0.5793-0.81 1.1185c-2.467 3.0798-5.253 3.9425-9.062 4.3603-3.092-0.0445-5.862-0.6468-8.386-2.5252-2.607-1.9398-4.323-4.7419-4.795-7.9602q-0.114-0.7418-0.154-1.4912-0.04-0.7495-5e-3 -1.4992 0.036-0.7497 0.146-1.4921 0.11-0.7425 0.293-1.4702 0.184-0.7277 0.439-1.4335 0.256-0.7058 0.58-1.3825 0.325-0.6767 0.716-1.3176 0.39-0.641 0.843-1.2397c2.43-3.1642 5.556-4.8534 9.474-5.3911z" fill="#717d83"/>
 <g fill="#a9b4b6">
  <path d="m291.92 261.51c2.616-0.091 5.202-0.174 7.729 0.62101q0.641 0.204 1.258 0.47 0.617 0.26699 1.205 0.59299 0.588 0.327 1.14 0.71 0.552 0.38301 1.064 0.82 0.511 0.436 0.977 0.921 0.465 0.485 0.88 1.014t0.776 1.096q0.36 0.56801 0.662 1.168c1.448 2.879 1.472 6.035 0.414 9.039-1.571 4.458-5.007 7.426-9.154 9.459-2.871 0.647-5.639 0.629-8.387-0.538-3.48-1.478-6.175-4.505-7.514-8.013-1.204-3.156-1.146-6.585 0.279-9.661 1.732-3.738 4.835-6.318 8.671-7.699z"/>
  <path d="m320.72 262.64c9.642 0.97301 19.201 0.85401 28.875 0.682-0.199 6.794-0.352 13.46 0.152 20.249-9.949-1.122-19.425-1.563-29.446-1.142 0.118-6.613 0.559-13.167 0.419-19.789z"/>
  <path d="m178.43 91.724c3.23 0.1989 6.725 0.808 9.182 3.1025 2.693 2.516 2.937 6.1278 2.982 9.5713 0.055 4.0847 0.108 8.6164-3.057 11.683-2.624 2.5425-5.956 2.922-9.414 2.8207-2.619-0.4607-5.105-1.4586-7.215-3.0916q-0.571-0.4356-1.096-0.9261-0.524-0.4906-0.997-1.0312t-0.89-1.1258q-0.416-0.5852-0.772-1.2092-0.355-0.6239-0.647-1.2803-0.291-0.6564-0.515-1.3387-0.225-0.6823-0.379-1.3836-0.155-0.7012-0.239-1.4145c-0.373-3.416 0.859-6.6599 3.007-9.2811 2.698-3.2935 5.892-4.6709 10.05-5.0956z"/>
 </g>
 <path d="m333.14 302c3.133-0.203 5.825 0.245 8.476 2.01 2.907 1.934 5.156 4.996 5.817 8.452 0.702 3.664 7e-3 8.27-2.147 11.364-2.281 3.275-5.545 4.709-9.356 5.393-2.243 0.121-4.405-0.465-6.407-1.449-3.391-1.667-6.347-4.782-7.526-8.406-1.024-3.147-0.607-6.658 0.918-9.573 2.14-4.089 5.933-6.456 10.225-7.791z" fill="#717d83"/>
 <path d="m641.49 386.74c3.307-0.317 6.464 0.82101 9.029 2.881 2.915 2.339 5.32 6.015 5.67 9.795 0.328 3.536-1.094 7.007-3.372 9.666-2.395 2.796-5.724 4.665-9.413 4.924-2.054 0.185-4.782-0.859-6.598-1.78-3.24-1.645-5.747-4.454-6.867-7.923-1.043-3.234-0.718-6.526 0.846-9.533 2.288-4.396 6.125-6.595 10.705-8.03z" fill="#88969a"/>
 <path d="m528.09 386.35c2.406-0.13 4.423 0.572 6.469 1.779 3.374 1.991 6.269 5.495 7.18 9.345 0.842 3.556-0.099 7.372-1.989 10.438-2.265 3.675-5.316 5.439-9.434 6.447-2.802 0.182-5.042-0.233-7.483-1.681q-0.61-0.36-1.18-0.78t-1.095-0.895-1-1.001q-0.474-0.525-0.893-1.096t-0.778-1.181-0.655-1.254q-0.296-0.643-0.525-1.313-0.229-0.669-0.39-1.359c-0.86-3.661-0.455-7.755 1.587-10.965 2.377-3.737 5.979-5.556 10.186-6.484z" fill="#a9b4b6"/>
 <path d="m138.39 386.33c2.752-0.219 5.008 0.22001 7.374 1.666 3.392 2.072 6.534 6.029 7.355 9.962 0.759 3.631-0.408 8.256-2.542 11.264-2.128 2.999-5.163 4.394-8.693 5.015-2.313 0.047-4.187-0.372-6.257-1.369-3.884-1.873-7.088-5.444-8.468-9.537-0.979-2.906-0.763-5.78 0.622-8.505 2.208-4.344 6.085-6.994 10.609-8.496z" fill="#88969a"/>
 <path d="m178.16 219.42c3.555 0.07 6.492 0.913 9.311 3.125 2.823 2.215 5.002 5.345 5.426 8.968 0.426 3.634-1.047 7.625-3.282 10.451-2.224 2.811-4.982 4.589-8.563 4.975-3.058-0.203-5.704-0.532-8.339-2.211-3.151-2.008-5.771-5.568-6.505-9.259-0.676-3.406 0.336-7.067 2.269-9.9 2.315-3.394 5.681-5.425 9.683-6.149z" fill="#a9b4b6"/>
 <path d="m591.46 132.61c9.652-0.47361 19.6-0.3133 29.252 0.1075 0.855 1.8167 0.252 14.688-0.186 17.288-0.766 0.613-1.92 0.481-2.866 0.5-9.487 0.689-19.348 0.21599-28.887 0.30099 1.662-2.73 0.12-13.797 0.528-17.596 0.644-0.6057 1.296-0.5025 2.159-0.6006z" fill="#f6f7f3"/>
 <path d="m449.71 386.68c2.695-0.15199 4.999 0.28 7.327 1.642 3.074 1.798 5.462 5.001 6.36 8.442 0.935 3.585 0.107 7.54-1.758 10.692-2.184 3.692-5.427 6.112-9.562 7.144-2.903-0.045-5.14-0.457-7.653-1.99q-0.632-0.38201-1.222-0.825-0.591-0.442-1.135-0.941t-1.036-1.05q-0.492-0.55-0.927-1.147-0.434-0.596-0.808-1.233-0.373-0.636-0.682-1.307-0.309-0.67-0.549-1.368-0.241-0.698-0.411-1.416c-0.832-3.481-0.429-6.88 1.518-9.933 2.454-3.847 6.191-5.774 10.538-6.71z" fill="#88969a"/>
 <path d="m63.659 302.41c3.0007 0.082 5.4943 0.949 7.8337 2.848 2.935 2.382 5.1246 5.96 5.4964 9.758 0.3713 3.794-0.9531 8.084-3.3813 11.019-2.5607 3.095-5.7149 3.984-9.5732 4.364-2.6538-0.23-5.2036-1.317-7.347-2.883-3.1853-2.327-5.5488-5.864-6.1474-9.793-0.5063-3.323 0.4062-6.562 2.3953-9.245 2.6343-3.555 6.4366-5.391 10.723-6.068z" fill="#a9b4b6"/>
 <path d="m62.761 91.358c3.5306-0.3337 6.5327 0.0159 9.4875 2.1063 3.0149 2.133 5.267 5.4947 5.8167 9.1696 0.5622 3.7584-0.5394 7.8269-2.8202 10.854-2.173 2.8839-5.0588 4.506-8.6074 4.9987-2.6687 0.0573-4.9895-0.3417-7.3743-1.5693-3.4781-1.7905-6.4933-4.9503-7.6503-8.7338-0.9357-3.0601-0.5547-6.2657 0.9717-9.0678 2.1608-3.9666 5.9135-6.5245 10.176-7.7575z" fill="#a9b4b6"/>
 <path d="m641.31 301.82c0.084-0.011 0.168-0.023 0.253-0.033 3.494-0.412 6.992 0.444 9.738 2.686 3.056 2.495 4.981 6.313 5.317 10.231q0.064 0.677 0.059 1.356-5e-3 0.68-0.078 1.355-0.073 0.676-0.214 1.34-0.141 0.665-0.348 1.312-0.207 0.64801-0.479 1.271-0.271 0.623-0.604 1.215-0.332 0.593-0.723 1.149-0.39 0.556-0.835 1.07c-2.396 2.729-5.311 3.799-8.864 4.041-2.189 0.418-5.713-0.078-7.752-1.082-2.747-1.353-4.607-3.687-5.618-6.533-1.336-3.762-1.245-8.849 0.532-12.458 1.964-3.989 5.598-5.648 9.616-6.92z" fill="#f6f7f3"/>
 <path d="m488.92 49.507c2.431-0.1148 4.462 0.242 6.641 1.304q0.689 0.3432 1.341 0.7518 0.652 0.4085 1.261 0.8785t1.17 0.9971q0.56 0.527 1.067 1.1061 0.506 0.579 0.954 1.2046 0.448 0.6255 0.833 1.2917 0.385 0.6661 0.703 1.3665 0.318 0.7005 0.567 1.4285c1.074 3.2436 0.804 6.6122-0.781 9.6419-2.173 4.1552-5.8 6.3411-10.156 7.6871-2.824 0.4812-5.493 0.0436-8.006-1.3335-3.28-1.7973-5.734-4.9906-6.747-8.5795-1.001-3.5467-0.426-7.2493 1.372-10.447 2.198-3.9058 5.52-6.1367 9.781-7.2979z" fill="#a9b4b6"/>
 <path d="m615.56 305.36c1.09-0.091 2.119-0.152 3.21-0.053-0.039 3.669 0.669 18.667-0.63 20.959-8.356-0.565-16.578-0.483-24.935-0.16699-0.775 0.052-1.548 0.016-2.324-2e-3 -1.74-1.423 1.101-17.186-0.745-20.565 8.419-0.085 17.037 0.54 25.424-0.17201z" fill="#88969a"/>
 <path d="m203.17 93.996c9.663 0.1122 19.449-0.3374 29.086 0.1537 0.209 6.5691 0.488 13.15 0.359 19.722-9.816 0.5868-19.788-0.2934-29.651 0.0669q0.757-9.9646 0.206-19.943z" fill="#f6f7f3"/>
 <path d="m175.13 134.17c3.785-0.3478 8.844-0.5698 12.192 1.5657 1.783 1.137 2.787 2.887 3.212 4.927 0.797 3.818 0.872 13.558-1.444 16.852-1.798 2.557-4.568 3.174-7.441 3.715-3.534 0.337-6.837 0.081-9.936-1.805-2.674-1.628-4.749-4.221-5.467-7.3-0.952-4.082 0.117-10.129 2.376-13.655 1.67-2.606 3.61-3.6147 6.508-4.2997z" fill="#a9b4b6"/>
 <path d="m243.03 305.35c3.86 0.36099 7.855 0.24299 11.737 0.43099 5.047 0.245 10.094 0.745 15.134 1.117-0.033 6.242 1.164 14.558 0.278 20.484q-13.792 0.083-27.577-0.358c0.257-6.787-0.247-15.288 0.428-21.674z" fill="#f6f7f3"/>
 <path d="m135.06 343.93c3.638-0.367 7.586-0.354 11.022 1.05 3.088 1.261 5.359 3.747 6.625 6.804 1.436 3.471 1.673 7.842 0.205 11.341-1.473 3.511-4.031 5.161-7.423 6.515-3.544 0.79701-7.357 1.224-10.8-0.23099-2.87-1.212-5.194-3.386-6.363-6.304-2.158-5.387-0.343-12.889 1.768-18.016 1.599-0.59 3.298-0.84301 4.966-1.159z" fill="#f6f7f3"/>
 <path d="m372.97 343.92c3.139-0.125 6.032 0.637 8.572 2.515 2.963 2.191 5.204 5.671 5.726 9.34 0.519 3.646-0.651 7.438-2.87 10.341-2.56 3.35-5.908 5.052-10.031 5.584-3.092-0.172-5.942-0.985-8.474-2.828-2.925-2.129-5.08-5.39-5.613-8.994-0.538-3.645 0.669-7.413 2.844-10.337 2.51-3.375 5.742-5.043 9.846-5.621z" fill="#a9b4b6"/>
 <path d="m293.44 344.23c3.412-0.385 6.299-0.262 9.276 1.717 3.224 2.142 5.627 5.847 6.325 9.648 0.656 3.569-0.227 7.223-2.277 10.199-2.363 3.431-5.596 5.46-9.661 6.205-2.451 0.125-4.661-0.536-6.854-1.591-3.561-1.713-6.681-4.643-7.937-8.462-1.07-3.254-0.472-6.546 1.058-9.532 2.191-4.281 5.583-6.718 10.07-8.184z" fill="#88969a"/>
 <g fill="#a9b4b6">
  <path d="m372.49 385.98c2.155-0.103 3.959 0.034 5.956 0.921 3.819 1.698 6.995 5.015 8.44 8.949 1.174 3.195 0.965 6.484-0.51 9.546-2.224 4.619-6.306 7.523-11.044 9.172-2.648 0.304-5.062-0.401-7.333-1.734-3.582-2.103-6.381-5.893-7.362-9.926-0.803-3.3-0.131-6.454 1.611-9.312 2.353-3.858 5.865-6.528 10.242-7.616z"/>
  <path d="m450 344.19c2.845-0.156 5.495 0.486 7.895 2.025 3.315 2.125 5.949 5.845 6.725 9.717 0.732 3.655-0.247 7.796-2.354 10.849-2.379 3.447-5.646 4.708-9.633 5.414-2.983 0.158-5.492-0.451-8.055-2.002-3.392-2.052-5.998-5.423-6.922-9.299-0.776-3.253-0.124-6.386 1.646-9.177q0.455-0.705 0.975-1.363t1.101-1.262q0.581-0.605 1.217-1.151 0.637-0.547 1.323-1.029 0.685-0.483 1.415-0.898 0.729-0.414 1.494-0.757 0.766-0.342 1.561-0.61 0.795-0.267 1.612-0.45699z"/>
  <path d="m449.45 91.99c3.244-0.2629 6.28 0.439 8.895 2.4129 3.155 2.3813 5.181 6.1906 5.704 10.077 0.509 3.7859-0.264 7.6818-2.658 10.718-2.42 3.0701-5.404 4.2599-9.207 4.6947-3.032-0.1571-5.678-0.6722-8.294-2.293q-0.626-0.3861-1.21-0.832-0.584-0.446-1.122-0.9474-0.537-0.5014-1.023-1.0534-0.485-0.552-0.913-1.1492-0.429-0.5972-0.796-1.2337-0.368-0.6366-0.67-1.3063-0.303-0.6697-0.538-1.366-0.236-0.6963-0.401-1.4124c-0.761-3.4412-0.035-6.8707 1.913-9.7908 2.503-3.7503 5.991-5.6506 10.32-6.518z"/>
 </g>
 <path d="m177.19 49.183c2.744-0.096 4.969 0.3279 7.334 1.7756 3.558 2.1767 6.743 6.3152 7.642 10.417 0.778 3.5567-0.322 7.4625-2.286 10.462-2.033 3.1048-5.093 5.2688-8.725 6.0257-2.788-0.031-5.001-0.3542-7.49-1.6894-3.604-1.9325-7.035-5.5835-8.2-9.5599-0.98-3.3454-0.25-6.8785 1.443-9.8611 2.296-4.0425 5.875-6.3719 10.282-7.5705z" fill="#88969a"/>
 <g fill="#a9b4b6">
  <path d="m451.2 218.78c3.194 0.179 6.236 1.551 8.629 3.65 2.761 2.422 4.405 5.649 4.631 9.321 0.244 3.964-0.918 7.979-3.605 10.949-2.772 3.064-5.958 4.169-10.016 4.362-2.898-0.12601-5.403-0.74501-7.784-2.484-3.141-2.295-5.041-6.047-5.595-9.848-0.516-3.55 0.383-6.951 2.535-9.821 2.795-3.729 6.681-5.518 11.205-6.129z"/>
  <path d="m178.83 385.71c2.651 0.142 4.961 1.088 7.125 2.603 3.196 2.236 6.206 5.916 6.801 9.865 0.522 3.464-0.748 7.172-2.854 9.909-2.607 3.388-6.339 5.426-10.545 5.957q-1.095-0.085-2.169-0.31-1.075-0.225-2.112-0.587-1.036-0.362-2.017-0.855-0.982-0.493-1.891-1.108c-3.056-2.094-5.531-5.306-6.164-9.019-0.613-3.59 0.502-7.111 2.625-10.011 2.763-3.776 6.649-5.745 11.201-6.444z"/>
  <path d="m295.03 91.988c3.12-0.269 5.676-0.0629 8.413 1.5819 3.187 1.9156 5.562 5.4709 6.38 9.0658 0.858 3.7689-0.058 7.6925-2.137 10.911-2.289 3.5441-5.327 5.1807-9.379 6.0748-3.085 0.139-5.709-0.1353-8.452-1.6726-3.232-1.8109-6.115-5.076-7.022-8.7141-0.854-3.4248 0.037-7.3126 1.864-10.281 2.439-3.9618 5.921-5.8918 10.333-6.9659z"/>
  <path d="m63.943 49.501c3.1482-0.2052 5.7464 0.5279 8.276 2.422 3.2362 2.4231 5.718 6.1361 6.2305 10.189 0.4678 3.6981-0.8026 7.6904-3.0766 10.612-2.322 2.9835-5.2888 4.3324-8.9724 4.7735-3.0808-0.0338-5.7125-0.5671-8.3882-2.1625-3.2343-1.9284-5.9857-5.0954-6.9051-8.8002-0.8218-3.3116 0.0215-6.8016 1.7787-9.6637 2.542-4.1403 6.4593-6.2363 11.057-7.3704z"/>
  <path d="m640.04 49.938c3.977-0.4793 7.339 0.1851 10.583 2.6115 3.078 2.3017 5.728 5.996 6.171 9.8877 0.406 3.5718-0.967 7.5084-3.173 10.3-2.269 2.8722-5.29 4.3644-8.883 4.764-2.077 0.3974-4.632-0.0626-6.594-0.8049q-0.654-0.2425-1.28-0.5494-0.626-0.3068-1.218-0.6749-0.592-0.368-1.144-0.7935-0.553-0.4256-1.059-0.9043-0.507-0.4787-0.964-1.0058-0.456-0.5271-0.857-1.0973t-0.743-1.1777-0.621-1.2462c-1.45-3.3807-1.549-7.1697-0.137-10.579 1.889-4.5609 5.521-6.9241 9.919-8.7305z"/>
  <path d="m179.18 343.56c2.726-0.137 5.126 0.356 7.395 1.918 3.258 2.242 5.738 6.401 6.382 10.28 0.596 3.597-0.451 7.423-2.588 10.352-2.612 3.578-6.068 4.815-10.298 5.466-3.153 0.039-5.778-0.851-8.323-2.699-3.127-2.27-5.658-5.742-6.251-9.618-0.527-3.446 0.54-6.902 2.612-9.667 2.813-3.754 6.553-5.343 11.071-6.032z"/>
  <path d="m450.75 302.05c2.932-0.242 5.742 0.505 8.147 2.199 3.037 2.138 5.232 5.581 5.827 9.252 0.651 4.01-0.688 8.409-3.074 11.646-2.527 3.427-5.635 4.575-9.74 5.186-2.919 0.049-5.615-0.928-8.019-2.561q-0.626-0.418-1.206-0.897-0.581-0.479-1.111-1.013-0.531-0.534-1.005-1.118t-0.888-1.213-0.763-1.296q-0.348-0.666-0.629-1.364-0.281-0.699-0.491-1.421-0.209-0.723-0.346-1.463c-0.59-3.37 0.319-6.601 2.27-9.371 2.678-3.803 6.514-5.823 11.028-6.566z"/>
  <path d="m215.99 386.32c2.902-0.293 5.387-0.08 8.063 1.16 3.442 1.596 6.527 4.687 7.77 8.309 1.181 3.441 0.431 7.284-1.169 10.467-2.055 4.087-5.408 6.469-9.659 7.917-2.904 0.505-5.588 0.131-8.237-1.17q-0.642-0.315-1.249-0.692-0.608-0.377-1.176-0.812-0.567-0.435-1.089-0.924t-0.993-1.026q-0.472-0.538-0.888-1.12-0.416-0.581-0.773-1.201-0.356-0.619-0.65-1.271-0.295-0.652-0.523-1.329c-1.174-3.519-0.955-7.495 0.747-10.806 2.094-4.075 5.597-6.145 9.826-7.502z"/>
 </g>
 <g fill="#f6f7f3">
  <path d="m294.26 301.44c3.512-0.154 6.495 0.061 9.502 2.033 2.796 1.833 4.924 4.705 5.594 8.004 0.768 3.782-0.062 8.003-2.203 11.212-2.375 3.561-5.706 5.52-9.832 6.369-3.452 0.033-6.692-0.505-9.592-2.493q-0.572-0.39101-1.102-0.836-0.53-0.44601-1.015-0.941-0.484-0.495-0.917-1.036-0.433-0.54-0.811-1.12t-0.698-1.195q-0.319-0.614-0.576-1.257-0.258-0.643-0.451-1.308t-0.32-1.346c-0.621-3.469 0.11-7.202 2.155-10.091 2.478-3.499 6.151-5.246 10.266-5.995z"/>
  <path d="m639.37 91.436c4.127-0.6101 8.011-0.167 11.539 2.2018 2.914 1.956 5.046 4.8172 5.703 8.3012 0.736 3.9005 0.026 8.6455-2.305 11.919-1.904 2.6736-4.666 4.2024-7.856 4.7122-3.025 0.4796-6.133 0.4038-9.036-0.6605-2.873-1.0535-5.549-3.0272-6.803-5.8927-1.597-3.6489-1.401-9.7678 0.134-13.408 1.656-3.9274 4.863-5.669 8.624-7.1731z"/>
  <path d="m640.36 343.96c3.664-0.372 6.881 0.067 9.998 2.175 3.251 2.2 5.54 5.892 6.261 9.733 0.66 3.508-0.057 7.068-2.106 10.003-2.411 3.454-6.262 5.191-10.312 5.884-2.299 0.65801-5.239-0.161-7.341-1.188q-0.647-0.311-1.26-0.685-0.613-0.373-1.185-0.806-0.573-0.433-1.1-0.92-0.527-0.488-1.002-1.025-0.476-0.538-0.896-1.12t-0.78-1.203q-0.359-0.621-0.656-1.274-0.296-0.654-0.526-1.334c-1.127-3.396-1.132-7.454 0.552-10.671 2.17-4.143 6.07-6.203 10.353-7.569z"/>
  <path d="m255.41 176.28c3.121-0.305 6.004 0.546 8.6 2.273 3.083 2.05 5.792 5.3 6.477 9.015 0.689 3.742-0.469 7.978-2.653 11.05-2.487 3.5-5.86 5.217-10.008 5.918-3.12-0.34801-5.651-0.90701-8.308-2.654-3.322-2.185-6.428-5.722-7.239-9.706-0.668-3.284 0.342-6.792 2.222-9.513 2.629-3.805 6.475-5.572 10.909-6.383z"/>
  <path d="m293.71 219.42c3.296-0.075 6.506 0.264 9.451 1.845 3.181 1.708 5.715 4.619 6.707 8.116q0.182 0.628 0.301 1.27 0.119 0.643 0.175 1.294t0.047 1.305q-9e-3 0.653-0.082 1.303-0.073 0.649-0.209 1.288t-0.335 1.262q-0.198 0.623-0.457 1.223t-0.575 1.172c-2.225 3.968-6.154 6.182-10.396 7.417-3.65 0.362-6.862-0.241-10.014-2.152-3.089-1.872-5.468-4.737-6.276-8.303-0.822-3.633 0.039-7.748 2.064-10.851 2.271-3.481 5.602-5.358 9.599-6.189z"/>
  <path d="m372 301.42c3.173-0.121 5.94 0.143 8.697 1.853 3.514 2.179 6.494 6.371 7.426 10.396 0.737 3.184 0.108 6.485-1.622 9.244-2.281 3.638-5.744 5.647-9.851 6.568-3.367 0.309-6.661-0.245-9.612-1.937-3.208-1.839-5.825-4.854-6.753-8.477-0.924-3.606-0.153-7.564 1.752-10.726 2.27-3.769 5.771-5.886 9.963-6.921z"/>
 </g>
 <path d="m294.71 385.44c3.234-0.185 5.886 0.5 8.522 2.403 3.035 2.191 5.427 5.541 5.998 9.286 0.595 3.893-0.678 8.085-2.994 11.227-2.68 3.635-6.054 5.262-10.428 5.959-2.717-0.14299-5.313-1.202-7.592-2.656-3.474-2.217-6.101-5.527-6.919-9.619-0.697-3.483 0.2-6.931 2.215-9.821 2.701-3.874 6.631-5.965 11.198-6.779z" fill="#a9b4b6"/>
 <g fill="#f6f7f3">
  <path d="m179.09 176.33c3.069-0.173 5.784 0.46601 8.284 2.286 2.964 2.159 5.296 5.82 5.856 9.458 0.577 3.742-0.958 7.723-3.185 10.683-2.711 3.602-6.016 5.062-10.385 5.724-3.456-0.035-6.384-1.015-9.091-3.188-3.171-2.546-5.466-6.287-5.878-10.37-0.347-3.441 0.784-6.715 3.012-9.338 3.024-3.561 6.863-4.842 11.387-5.255z"/>
  <path d="m293.94 134.12c3.256-0.4114 6.445-0.2186 9.399 1.3155q0.602 0.3115 1.172 0.6803 0.569 0.369 1.1 0.791 0.53 0.423 1.017 0.895t0.925 0.99q0.439 0.517 0.825 1.075 0.386 0.557 0.715 1.15 0.33 0.593 0.6 1.215 0.271 0.622 0.479 1.267c1.165 3.691 0.703 7.78-1.084 11.195-2.143 4.097-5.43 6.241-9.735 7.589-3.212 0.426-6.215 0.186-9.101-1.379-3.446-1.869-6.18-5.317-7.239-9.089-1.011-3.598-0.344-7.655 1.482-10.887 2.141-3.79 5.342-5.6944 9.445-6.8078z"/>
  <path d="m333.18 342.95c3.814-0.16 6.961 0.142 10.037 2.658q0.586 0.488 1.122 1.029 0.536 0.542 1.017 1.133t0.903 1.226q0.422 0.634 0.781 1.307 0.358 0.67201 0.65 1.376 0.292 0.704 0.515 1.433 0.223 0.728 0.374 1.475t0.23 1.505c0.341 3.545-0.424 7.175-2.738 9.956-2.666 3.204-6.338 4.548-10.376 4.963-3.315 0.112-6.701-0.724-9.455-2.605-2.955-2.019-5.148-5.219-5.747-8.768-0.642-3.808 0.583-8.069 2.839-11.163 2.482-3.406 5.782-4.885 9.848-5.525z"/>
  <path d="m489.4 90.432c2.887-0.0558 5.184 0.3264 7.729 1.7525 3.272 1.8335 6.131 4.9654 7.141 8.63 1.001 3.6329 0.139 8.1566-1.774 11.362-2.351 3.9372-6.202 5.8076-10.512 6.8757-3.512 0.1002-6.63-0.6361-9.547-2.6658q-0.595-0.4065-1.145-0.8712-0.55-0.4646-1.051-0.9826-0.5-0.5181-0.945-1.0841-0.446-0.5661-0.831-1.1743-0.386-0.6083-0.708-1.2525t-0.577-1.3177-0.441-1.3693q-0.185-0.6959-0.299-1.407c-0.621-3.7912 0.153-7.7173 2.441-10.835 2.63-3.5817 6.268-5.0097 10.519-5.6602z"/>
  <path d="m450.42 260.57c3.651-0.094 6.901 1.035 9.653 3.445q0.582 0.512 1.111 1.078 0.528 0.566 0.999 1.181 0.47 0.616 0.878 1.274 0.408 0.659 0.749 1.354 0.341 0.696 0.612 1.422 0.271 0.725 0.47 1.474 0.198 0.749 0.322 1.513 0.124 0.765 0.172 1.538c0.217 3.709-0.891 7.413-3.407 10.193-2.708 2.993-5.783 3.653-9.676 3.88-3.233-1e-3 -6.504-0.684-9.236-2.476q-0.575-0.382-1.11-0.819-0.535-0.436-1.025-0.923-0.49-0.486-0.929-1.019-0.44-0.532-0.826-1.104-0.386-0.573-0.714-1.18-0.328-0.608-0.595-1.245-0.267-0.63599-0.47-1.296-0.204-0.65999-0.342-1.336c-0.71-3.56-0.055-7.196 2.021-10.192 2.733-3.946 6.738-5.908 11.343-6.762z"/>
  <path d="m88.187 304.95c5.4456 0.529 10.939 0.293 16.403 0.334 4.3843 0.033 8.782 0.325 13.164 0.503 0.0942 3.371 1.1855 19.423 0.1725 21.26-9.8737-0.477-19.822-0.354-29.7-0.062-0.198-7.333 0.1239-14.691-0.0397-22.035z"/>
  <path d="m489.12 385.43c3.09-0.233 5.906 0.625 8.496 2.294 3.174 2.045 5.716 5.159 6.504 8.907 0.778 3.702-0.043 7.912-2.164 11.046-2.458 3.631-6.556 5.935-10.798 6.763-2.917 0.09-6.026-0.764-8.506-2.297-3.346-2.069-5.457-5.437-6.343-9.228-0.843-3.608-0.485-7.32 1.512-10.491 2.595-4.119 6.707-5.981 11.299-6.994z"/>
  <path d="m296.68 175.99c2.91-0.20099 6.008 0.89501 8.387 2.538 3.01 2.081 5.378 5.346 6.027 8.986 0.681 3.818-0.597 8.068-2.822 11.184-2.712 3.798-6.467 5.502-10.947 6.293-3.171-0.026-6.364-1.452-8.901-3.3-3.16-2.303-5.439-5.643-6.003-9.553-0.524-3.63 0.701-7.359 2.931-10.224 2.894-3.717 6.764-5.365 11.328-5.924z"/>
 </g>
 <defs>
  <linearGradient id="gradient_2" x1="465.89" x2="468.2" y1="126.55" y2="97.037" gradientTransform="translate(23.419 35.945)" gradientUnits="userSpaceOnUse">
   <stop stop-color="#D0D3D3" offset="0"/>
   <stop stop-color="#F6F6F3" offset="1"/>
  </linearGradient>
 </defs>
 <path d="m479.53 133.33c7.53-0.5983 15.353-0.14 22.92-0.1722-0.474 10.902-0.202 21.65-1.216 32.545-0.118 0.436-0.275 0.89-0.356 1.333-0.045 0.245-0.181 0.413-0.312 0.633-0.123-1.212 8e-3 -2.504 0.046-3.723-5.629-2.625-13.101-4.906-19.425-4.155-0.876 0.104-1.233 0.233-1.803 0.897-0.05 0.392-0.047 0.625 0.14 0.983 0.797 1.524 0.567 2.75 0.406 4.403-0.515-0.99199-0.033-2.577-0.581-3.686-0.044-0.089-0.107-0.167-0.16-0.251-0.549-9.614-0.705-19.211 0.341-28.807z" fill="url(#gradient_2)"/>
 <g fill="#f6f7f3">
  <path d="m254.17 133.47c3.389-0.263 6.442-0.1344 9.492 1.5351q0.594 0.3225 1.152 0.7025 0.559 0.3801 1.077 0.8141 0.518 0.433 0.99 0.917 0.473 0.483 0.894 1.011 0.422 0.527 0.789 1.095 0.367 0.567 0.676 1.168t0.556 1.229q0.248 0.629 0.431 1.279c1.051 3.792 0.679 8.483-1.289 11.926-2.245 3.927-5.823 5.734-10.046 6.868-3.457 0.342-6.317-0.107-9.32-1.894-3.311-1.97-6.089-5.128-7.015-8.926-0.915-3.753-0.173-8.223 1.886-11.486 2.309-3.659 5.613-5.3436 9.727-6.2387z"/>
  <path d="m216.82 49.228c3.181-0.2145 6.08 0.5353 8.682 2.404 3.486 2.5035 6.136 6.7685 6.765 11.021 0.526 3.5527-0.384 7.5087-2.557 10.388-2.517 3.3374-6.271 4.7121-10.283 5.2631-3.245 0.0081-6.327-0.7547-9.069-2.5329-3.29-2.1339-5.702-5.3902-6.463-9.2673-0.745-3.7953 0.257-7.9929 2.464-11.146 2.533-3.6204 6.208-5.3816 10.461-6.1302z"/>
  <path d="m334.26 385.05c2.81-0.15199 5.415 0.53 7.809 2 3.408 2.091 6.265 5.609 7.157 9.549 0.835 3.691-0.096 7.836-2.153 10.976-2.576 3.932-6.427 5.873-10.92 6.791-3.386 0.052-6.503-0.943-9.282-2.878q-0.632-0.439-1.217-0.938-0.586-0.5-1.118-1.055-0.532-0.55599-1.007-1.162-0.474-0.60501-0.886-1.255-0.411-0.651-0.756-1.338-0.344-0.68799-0.619-1.407-0.274-0.719-0.475-1.461-0.201-0.74299-0.327-1.502c-0.602-3.441 0.191-6.66 2.196-9.505 2.794-3.968 6.905-6.031 11.598-6.815z"/>
  <path d="m63.063 385.41c3.1617-0.19799 5.8006 0.298 8.4988 1.991 3.4119 2.142 6.3789 5.648 7.2146 9.659 0.782 3.754-0.1321 7.988-2.2369 11.174-2.5493 3.859-6.2418 5.459-10.619 6.379-3.1217 0.083-5.7198-0.693-8.3908-2.29-3.5781-2.14-6.4795-5.56-7.4844-9.659q-0.1507-0.638-0.2367-1.288t-0.1065-1.305q-0.0205-0.655 0.0247-1.309t0.1556-1.3q0.1105-0.646 0.2851-1.278 0.1747-0.631 0.4117-1.243 0.237-0.611 0.5341-1.195 0.297-0.584 0.6511-1.136c2.5961-4.107 6.7014-6.146 11.299-7.2z"/>
  <path d="m450.06 48.913c3.539 0.1908 6.558 1.0976 9.345 3.373 3.3 2.6934 5.519 6.6778 5.866 10.94 0.299 3.6702-0.613 7.5787-3.071 10.395-2.738 3.1354-6.59 4.3046-10.615 4.5711-3.098-0.0505-6.075-0.7022-8.713-2.3981-3.374-2.17-5.478-5.5684-6.263-9.474-0.749-3.7288-0.087-7.4109 2.074-10.56 2.698-3.9315 6.807-5.9587 11.377-6.8468z"/>
 </g>
 <path d="m401.41 131.38c7.445 0.7154 14.726 0.3733 22.176 0.0269 0.117 10.828-0.419 21.755-0.486 32.598q-11.227-0.15301-22.448 0.252 0.287-10.138 0.445-20.278c0.058-4.189-0.119-8.4312 0.313-12.599z" fill="#a9b4b6"/>
 <path d="m555.4 306.62c0.019 0.089 0.04 0.176 0.057 0.265 0.857 4.408 0.275 9.978 0.278 14.509 6e-3 9.986-0.06 19.87 0.568 29.839 0.126 1.999-0.244 4.609 0.383 6.484 2.258 0.472 4.406 0.446 6.634 0.785 3.639 0.554 6.633 1.72 10.366 1.111 0.779-0.127 1.483-0.12 2.189 0.272-0.09-3.407-0.59-18.195 0.462-20.528 0.781 2.998 0.127 14.613 0.173 18.601l0.364 39.651c0.022 3.95 0.367 7.934 0.294 11.876-0.021 1.08-0.09 2.052-0.464 3.078-2.238 2.077-5.988 2.198-8.887 2.274-3.108 0.081-8.879 0.264-11.236-2.203-0.891-0.933-1-2.102-1.085-3.333-0.3-4.346-0.072-8.861-0.096-13.23-0.062-11.285 0.122-22.542 0.193-33.822 0.117-18.533-0.493-37.092-0.193-55.629z" fill="#a9b4b6"/>
 <defs>
  <linearGradient id="gradient_3" x1="349.85" x2="351.65" y1="182.81" y2="250.49" gradientTransform="translate(23.419 35.945)" gradientUnits="userSpaceOnUse">
   <stop stop-color="#6B767B" offset="0"/>
   <stop stop-color="#97A2A5" offset="1"/>
  </linearGradient>
 </defs>
 <path d="m364.02 218.35c6.795-0.169 13.865 0.635 20.645 1.162 0.924 7.611 0.202 15.743 0.099 23.427q-0.486 22.176-0.303 44.357c-6.801-0.873-13.787-0.541-20.626-0.381-0.561-15.488-0.039-30.927 0.013-46.408 0.025-7.313-1.12-14.916 0.172-22.157z" fill="url(#gradient_3)"/>
 <path d="m170.54 260.62c6.137-0.472 14.212-0.729 20.237 0.263 0.269 4.915-0.158 9.928-0.249 14.852l-0.517 31.562q-0.091 7.483-0.041 14.966c0.017 2.244 0.41 4.825 1e-3 7.01l-0.588 0.223q-10.235-0.33101-20.475-0.372c0.259-7.516-0.116-66.474 0.338-67.523 0.304-0.703 0.622-0.701 1.294-0.98101z" fill="#a9b4b6"/>
 <path d="m602.2 49.939c3.57-0.1101 9.378-0.3744 12.294 2.1048 0.057 0.1148 0.117 0.228 0.171 0.3443 1.123 2.4276 1.821 62.485 0.957 64.847l-9.863 0.0356c-4.136 0.01-8.286 0.2407-12.42 0.3898 1.168-2.4745 0.413-12.927 0.358-16.086-0.105-6.0641-1.352-46.898 0.937-49.74 1.447-1.7971 5.406-1.7227 7.566-1.8954z" fill="#f6f7f3"/>
 <path d="m54.634 221.33c7.3923-0.25399 14.99 0.237 22.31 1.297 0.0176 6.537-0.3614 13.074-0.3626 19.613-0.0028 15.097 0.2838 30.161-0.1518 45.257-7.2082 0.17501-15.277 0.321-22.414-0.706-0.4891-7.812-0.0898-15.949 0.0095-23.787z" fill="#f6f7f3"/>
 <path d="m245.99 219.44c4.147-0.177 16.545-0.62 19.946 1.237 0.748 1.586 1.007 3.473 1.113 5.212 0.39 6.376-0.082 12.994-0.013 19.4 0.096 8.768 0.012 17.506-0.041 26.271-0.036 5.946 0.091 11.928-0.318 17.86-6.896-0.35501-13.789-0.34801-20.692-0.33601-0.412-5.283-0.212-10.667-0.225-15.966l-0.012-28.239c-2e-3 -5.713-1.025-20.98 0.242-25.439z" fill="#a9b4b6"/>
 <defs>
  <linearGradient id="gradient_4" x1="465.87" x2="467.87" y1="268.58" y2="315.42" gradientTransform="translate(23.419 35.945)" gradientUnits="userSpaceOnUse">
   <stop stop-color="#999E9F" offset="0"/>
   <stop stop-color="#D4D8D8" offset="1"/>
  </linearGradient>
 </defs>
 <path d="m479.34 304.49c7.398-0.513 15.242 0.20999 22.663 0.459 0.565 6.053-0.413 12.368-0.381 18.461 0.061 11.494 1.019 22.937 0.577 34.449q0.289 5.339 0.273 10.685c-7.738 0.058-15.493 0.364-23.225 0.369-0.095-2.099-0.257-4.222-0.134-6.321q-0.85-29.055 0.227-58.102z" fill="url(#gradient_4)"/>
 <path d="m479.11 362.59c0.858-2.059 1.177-6.971 0.667-9.174-0.098-0.42001-0.193-0.834-0.279-1.257 5.149-0.962 17.59-0.979 21.617-3.23 0.075-0.042 0.148-0.089 0.222-0.134 1.558 2.264-0.598 6.487 0.674 8.817 0.049 0.09 0.123 0.163 0.185 0.245q0.289 5.339 0.273 10.685c-7.738 0.058-15.493 0.364-23.225 0.36901-0.095-2.099-0.257-4.222-0.134-6.321z" fill="#f6f7f3"/>
 <defs>
  <linearGradient id="gradient_5" x1="75.666" x2="83.02" y1="377.48" y2="305.94" gradientTransform="translate(23.419 35.945)" gradientUnits="userSpaceOnUse">
   <stop stop-color="#B2B8B9" offset="0"/>
   <stop stop-color="#D6D9D8" offset="1"/>
  </linearGradient>
 </defs>
 <path d="m92.683 342.16q10.465 0.22899 20.926-0.127c0.3215 5.868 0.0579 11.81 0.0225 17.686q0.0257 16.718-0.4384 33.429c-0.1448 6.868 0.4914 13.961-0.109 20.775q-10.339 0.57601-20.644-0.432c-0.0918-5.062 0.1574-10.122 0.0887-15.186-0.2533-18.673-0.6757-37.485 0.1538-56.145z" fill="url(#gradient_5)"/>
 <g fill="#f6f7f3">
  <path d="m598.87 342.03c5.323-0.197 10.735-0.523 16.054-0.14699 0.13 0.285 0.291 0.579 0.363 0.884 0.447 1.913-0.427 11.273-0.426 14.166 2e-3 7.832 1.854 52.103 0.024 55.294-1.634 0.745-3.677 0.8-5.439 0.99799-4.106 0.47301-11.233 1.25-14.866-0.797-0.503-0.561-0.609-1.197-0.742-1.914-1.147-6.19-1.114-65.556 0.379-67.309 0.929-1.09 3.31-1.036 4.653-1.175z"/>
  <path d="m59.772 133.24c5.4985-0.1095 11.716-0.7581 17.106 0.2946-1.2403 24.24 0.4105 48.608-0.7181 72.838l-4.9428 0.107c-5.5895 0.03-11.306 0.176-16.878-0.27-0.9126-9.747-0.0497-19.803-0.0356-29.594 0.0195-13.484-1.1738-29.796 0.9201-43 1.505-0.1808 3.0361-0.2585 4.5482-0.3765z"/>
  <path d="m130.24 132.41q10.776 0.0901 21.553 0.06 0.191 23.152-0.052 46.304c-0.087 9.949-0.076 19.888-0.635 29.824-1.206 0.957-17.525 0.352-20.061 0.336-0.406-4.2-0.332-8.543-0.452-12.765-0.329-11.585-0.226-23.143-0.215-34.729 9e-3 -9.621-0.679-19.446-0.138-29.03z"/>
 </g>
 <path d="m422.78 280.98c0.899 9.693 0.379 19.872 0.3 29.607l-0.42 48.351c-0.104 11.915 0.097 23.845 0.117 35.762 9e-3 5.503 0.324 11.144-0.109 16.628-4.314 3.026-9.578 3.978-14.764 3.059-1.831-0.32401-4.544-1.279-5.506-3.025-0.747-1.355-0.729-4.258-0.766-5.799-0.517-21.584 0.319-43.227 0.121-64.82l-0.135-32c-0.036-5.922-0.623-12.592 0.176-18.444 0.443 4.116 0.121 8.553 0.121 12.699l0.013 24.182 20.816 0.836c-0.066-9.426 0.162-18.845 0.11-28.266-0.034-6.198-0.524-12.595-0.074-18.77z" fill="#a9b4b6"/>
 <path d="m93.425 188.93c2.6184-0.613 6.0032 0.016 8.7318-0.116 3.0455-0.147 7.2087-1.403 10.15-0.801 1.4267 0.292 0.1258 6.205 1.1306 7.621 0.0883 0.125 0.1918 0.238 0.2877 0.356l-0.1992 64.075c0.0394 9.681-0.048 19.354 0.4576 29.026-6.9946-0.273-14.055-0.582-21.052-0.304-0.2749-16.24 0.3557-32.473 0.1381-48.72q-0.2141-14.632-0.2765-29.265c-0.0162-4.728-0.362-9.859 0.1422-14.548 0.6602-2.219 0.4516-5.01 0.4889-7.324z" fill="#a9b4b6"/>
 <defs>
  <linearGradient id="gradient_6" x1="179.87" x2="210.36" y1="193.53" y2="97.351" gradientTransform="translate(23.419 35.945)" gradientUnits="userSpaceOnUse">
   <stop stop-color="#C5C6C4" offset="0"/>
   <stop stop-color="#F2F2F0" offset="1"/>
  </linearGradient>
 </defs>
 <path d="m207.59 131.48c7.313-0.25911 14.46-0.0264 21.782-0.6276q-0.88 31.981-0.686 63.974c0.057 12.135 0.683 24.173 0.01 36.316-0.418 1.907-0.237 3.865-0.566 5.781-0.013-0.697-0.017-1.344-0.19-2.024-3.43-1.066-16.295-4.139-19.371-3.325-0.51 1.26 0.251 2.403 0.022 3.695-1.15-2.982-0.235-23.518-0.732-28.637l-0.036-0.358c-0.203-11.294-0.574-22.616-0.518-33.911 0.035-7.23 0.459-14.452 0.495-21.68 0.032-6.393-0.344-12.823-0.21-19.203z" fill="url(#gradient_6)"/>
 <path d="m534.21 443.38 4.677-0.208c0.188 17.593-0.31 35.186-0.129 52.772l0.145 36.072c-0.014 7.104 0.169 14.309-0.333 21.396-5.006-0.884-10.126-0.832-15.194-0.922l-4.655-0.267c-0.308-14.711 0.16-29.346 0.262-44.051l0.011-64.633q7.609 0.031 15.216-0.159z" fill="#f6f7f3"/>
 <path d="m517.6 264.34c7.192-0.081 14.448 0.271 21.65 0.34801-0.491 3.439-0.283 7.186-0.287 10.667l-4e-3 18.321q-0.361 38.452 0.569 76.895c-7.063-0.132-14.096-0.509-21.164-0.466-0.269-11.31-0.012-22.678 0.026-33.992q0.037-19.516-0.154-39.032c-0.036-10.75 0.636-22.061-0.636-32.741z" fill="#a9b4b6"/>
 <path d="m561.54 50.253c3.471-0.2277 7.457-0.2499 10.849 0.5251 1.183 0.2702 3.204 0.8846 3.715 2.1348 0.935 2.2901 0.042 15.547 0.023 19.058l-0.815 73.515c-0.069 4.099 0.198 8.287-0.036 12.372-0.03 0.516-0.188 1.024-0.36 1.508l-6.166 0.425c-4.251 0.655-8.69 0.746-12.986 0.927-0.656-17.229-0.069-34.67-0.103-51.922l0.051-39.72c0.05-5.9817-0.055-11.969 0.234-17.946 1.819-0.5368 3.715-0.6734 5.594-0.8777z" fill="#49545e"/>
 <path d="m130.84 221.06c5.111-1.079 15.938-2.296 21.03-1.166 0.647 4.179 0.221 8.7 0.227 12.931 0.01 6.598 0.209 13.184 0.158 19.786l-0.12 48.086c-0.037 8.958-0.42 17.938-0.127 26.893q-10.525-0.058-21.05 0.089-0.702-46.545-0.276-93.093c0.014-2.011-0.554-12.086-0.318-12.99 0.046-0.176 0.192-0.309 0.288-0.463z" fill="#f6f7f3"/>
 <path d="m632.88 133.25c2.733-0.5624 16.417 0.402 20.471 0.4758 0.124 0.2445 0.197 0.3678 0.283 0.6463 0.606 1.9631-0.355 7.7951-0.507 10.133-0.402 6.165-0.124 12.378-0.161 18.553q-0.305 28.153-0.143 56.306c0.067 8.04 1.026 16.335 0.626 24.332-0.042 0.84801-0.114 1.087-0.572 1.836-2.381 0.651-16.854 0.22499-20.923 0.43799 0.722-1.55-0.042-17.192-0.054-19.968q-0.121-33.846 0.296-67.689 0.168-8.288 0.554-16.568c0.108-2.688 0.566-5.8735 0.13-8.4952z" fill="#a9b4b6"/>
 <g fill="#f6f7f3">
  <path d="m402.01 216.79c7.08-0.208 14.297 6e-3 21.373 0.333 0.095 8.276-0.173 16.59-0.265 24.869l-0.339 38.988c-0.45 6.175 0.04 12.572 0.074 18.77 0.052 9.421-0.176 18.84-0.11 28.266l-20.816-0.836-0.013-24.182c0-4.146 0.322-8.583-0.121-12.699-0.172-17.369-0.3-34.652-0.1-52.023 0.083-7.157-0.034-14.337 0.317-21.486z"/>
  <path d="m370.12 49.928c3.308-0.2586 10.794-1.1496 13.565 0.5848 1.182 4.9497 0.414 11.466 0.391 16.585l0.025 23.929 0.189 52.727c-0.016 6.967 0.195 13.951-0.098 20.913l-6.656-9e-3q-7.247-0.097-14.482-0.526c-0.32-5.191-0.097-10.507-0.097-15.71l-0.043-28.217c-0.062-20.684-0.714-41.421-0.463-62.099 0.019-1.5586-0.165-4.8683 0.614-6.213 1.048-1.8085 5.195-1.7953 7.055-1.9652z"/>
  <path d="m93.07 50.558c2.3537-0.4432 4.8002-0.5365 7.1915-0.6174 2.6637-0.0901 10.694-0.7833 12.471 1.2178 0.6791 0.7647 0.832 4.7517 0.8682 5.8832 0.5185 16.205-0.2921 32.424-0.0995 48.63l0.2227 40.405c-7e-3 9.037 0.2689 18.372-0.7991 27.349-6.3565-0.462-12.833-0.217-19.18 0.31-0.9755-2.05-0.7831-5.748-0.8488-8.062-0.2186-7.688-0.0047-15.396 1e-4 -23.088q-0.0955-22.664 0.0823-45.326c0.0641-15.507-0.6589-31.222 0.0914-46.702z"/>
 </g>
 <defs>
  <linearGradient id="gradient_7" x1="500.85" x2="430.55" y1="208.92" y2="167.4" gradientTransform="translate(23.419 35.945)" gradientUnits="userSpaceOnUse">
   <stop stop-color="#889A9D" offset="0"/>
   <stop stop-color="#B0B0B0" offset="1"/>
  </linearGradient>
 </defs>
 <path d="m479.19 162.14c0.053 0.084 0.116 0.162 0.16 0.251 0.548 1.109 0.066 2.694 0.581 3.686 0.161-1.653 0.391-2.879-0.406-4.403-0.187-0.358-0.19-0.591-0.14-0.983 0.57-0.664 0.927-0.793 1.803-0.897 6.324-0.751 13.796 1.53 19.425 4.155-0.038 1.219-0.169 2.511-0.046 3.723 0.131-0.22 0.267-0.388 0.312-0.633 0.081-0.443 0.238-0.897 0.356-1.333-1.236 28.676-0.627 57.543-0.53 86.246 0.04 11.814 0.516 23.803-0.113 35.596-6.743-0.649-13.418-0.395-20.171-0.14699-0.804-15.113-0.257-30.287-0.217-45.414 0.071-26.632 0.049-53.236-1.014-79.847z" fill="url(#gradient_7)"/>
 <defs>
  <linearGradient id="gradient_8" x1="597.13" x2="565" y1="131.14" y2="250.55" gradientTransform="translate(23.419 35.945)" gradientUnits="userSpaceOnUse">
   <stop stop-color="#C2C6C7" offset="0"/>
   <stop stop-color="#FFFFF9" offset="1"/>
  </linearGradient>
 </defs>
 <path d="m607.18 164.46c2.257-0.055 4.482-0.099 6.736 0.076 0.245 0.475 0.225 0.38201 0.375 0.881 0.453 1.502 0.157 17.844 0.203 20.973l0.385 50.556c0.207 15.962 0.735 31.879 0.615 47.851-0.01 1.37 0.062 2.531-0.595 3.775-4.624 0.49601-9.622 0.17901-14.292 0.189l-7.122 0.393c0.167-0.30199 0.2-0.324 0.296-0.709 0.389-1.575-0.393-14.215-0.383-16.773 0.095-25.397 0.613-50.756 0.32-76.159-0.05-4.324 0.706-29.339-0.094-30.916q6.779 0.016 13.556-0.137z" fill="url(#gradient_8)"/>
 <path d="m207.82 206.27 0.036 0.358c0.497 5.119-0.418 25.655 0.732 28.637 0.229-1.292-0.532-2.435-0.022-3.695 3.076-0.814 15.941 2.259 19.371 3.325 0.173 0.68001 0.177 1.327 0.19 2.024 0.329-1.916 0.148-3.874 0.566-5.781 0.29 6.113-0.161 12.367-0.123 18.502q0.177 27.148-0.037 54.295c-0.117 21.989 0.77 43.941 0.923 65.925q-10.828-0.665-21.676-0.682c-0.201-4.176 0.019-8.423 0.055-12.605l-0.01-18.118q-0.215-35.259 0.301-70.515c0.205-20.522-1.119-41.181-0.306-61.67z" fill="#88969a"/>
 <path d="m555.32 177.89c6.969-0.471 13.952-0.46 20.934-0.39099 0.46 0.92599 0.451 1.66 0.463 2.675 0.413 34.505-0.282 69.055-0.23 103.56l0.029 33.073c0.072 7.327 0.704 15.281-0.181 22.553-1.052 2.333-0.552 17.121-0.462 20.528-0.706-0.392-1.41-0.399-2.189-0.272-3.733 0.609-6.727-0.557-10.366-1.111-2.228-0.339-4.376-0.313-6.634-0.785-0.627-1.875-0.257-4.485-0.383-6.484-0.628-9.969-0.562-19.853-0.568-29.839-3e-3 -4.531 0.579-10.101-0.278-14.509-0.017-0.089-0.038-0.176-0.057-0.265l0.174-105.1c0.054-7.88-0.406-15.76-0.252-23.637z" fill="#f6f7f3"/>
 <path d="m340.75 49.918c1.895-0.1397 3.794-0.0689 5.693-0.0319 0.538 6.9215-0.035 14.085-0.214 21.023q-0.368 15.212-0.384 30.429l0.298 76.899 0.026 39.578c0.013 9.323-0.103 18.636 0.301 27.953-5.298 0.181-10.639-0.057-15.939-0.154l-6.254 0.095c-0.125-10.124 0.344-20.275 0.555-30.397q0.479-21.477 0.442-42.959l-0.655-121.7c5.174-0.7507 10.879-0.5309 16.131-0.735z" fill="#a9b4b6"/>
 <g fill="#f6f7f3">
  <path d="m528.53 49.925c1.522-0.0601 3.04-0.1078 4.562-0.0069 2.212 0.1467 4.451 0.6585 5.879 2.4966 0.53 0.6821 0.549 1.5293 0.582 2.3548 0.31 7.524-0.253 15.259-0.277 22.808-0.065 20.815-0.34 41.669-0.161 62.479q0.462 36.53 0.091 73.062l-0.231 21.31c-0.053 4.557 0.128 9.224-0.41 13.751-2.74-0.294-5.538-0.339-8.291-0.484l-12.135-0.202c-0.722-8.654-0.185-17.588-0.143-26.281l0.017-43.173 0.02-77.907c0.016-13.382-0.292-26.855 0.104-40.229 0.052-1.7442-0.041-5.2678 1.082-6.6785 2.137-2.6836 6.175-2.9438 9.311-3.3008z"/>
  <path d="m608.23 444.33c5.51-0.519 11.323-0.31099 16.759 0.68701 9.463 1.739 17.448 5.762 25.3 11.174 1.935 1.333 4.505 2.952 5.845 4.884-0.865 1.533-4.263 4.025-5.709 5.519-2.571 2.657-6.549 8.954-9.266 10.591 0.022-0.29501 0.046-0.376-0.035-0.703-0.53-2.131-2.535-3.799-4.254-5.005-7.883-5.529-17.218-8.533-26.846-6.79-8.259 1.496-16.347 6.485-21.14 13.405-5.566 8.036-7.539 16.762-5.747 26.384 1.725 9.261 6.635 16.814 14.473 22.105 6.573 4.437 15.115 6.901 23.022 5.305 4.709-0.951 15.783-5.649 18.506-9.701 0.863-0.49401 1.473-0.921 2.138-1.664 2.575 2.365 4.368 5.575 7.192 7.759 2.134 1.649 7.621 4.657 8.865 6.746-0.107 0.279-0.127 0.38199-0.337 0.648-0.837 1.065-2.298 2.124-3.342 3.015-7.536 6.433-17.454 11.318-27.199 13.168-15.476 2.937-29.728-1.118-42.574-9.935-11.732-8.053-18.767-21.662-21.201-35.465-2.393-13.569 0.478-28.524 8.385-39.829 9.287-13.277 21.529-19.553 37.165-22.298z"/>
  <path d="m334.82 442.7c14.189-0.387 26.299 6.562 37.651 14.252-4.667 5.109-8.452 10.433-12.245 16.195-4.608-5.459-13.527-8.697-20.433-9.535-5.425-0.658-12.859-0.139-17.252 3.506q-0.361 0.299-0.691 0.633-0.33 0.333-0.625 0.697-0.296 0.365-0.554 0.756-0.258 0.392-0.476 0.807t-0.394 0.85q-0.177 0.435-0.309 0.885-0.133 0.449-0.22 0.91t-0.129 0.928c-0.258 2.903 0.799 5.529 2.903 7.52 6.076 5.748 22.423 7.74 30.69 10.7 6.146 2.2 12.891 5.895 17.013 11.084 4.489 5.651 5.675 13.262 4.862 20.282-0.914 7.881-5.263 15.251-11.529 20.099-9.74 7.535-21.421 10.775-33.647 9.169-15.27-2.982-23.77-8.502-36.588-16.705 4.729-5.206 9.808-10.493 13.951-16.171 0.19 0.198 0.379 0.398 0.579 0.587 7.049 6.668 18.332 12.821 28.165 12.46 5.526-0.202 11.576-2.107 15.395-6.278 2.022-2.209 3.189-4.82 2.989-7.861-0.665-10.127-22.421-11.704-30.379-14.141-5.11-1.566-10.263-3.908-14.303-7.47-5.753-5.073-9.618-12.845-10.106-20.511-0.477-7.504 1.723-16.151 6.777-21.859 7.453-8.418 18.072-11.126 28.905-11.789z"/>
  <path d="m440.67 443.01c3.147-0.09 6.255-0.076 9.4 0.053 11.853 21.84 21.948 44.591 32.139 67.234 2.401 5.335 5.333 10.427 7.801 15.736 4.008 8.619 7.435 17.548 10.661 26.487-6.296 0.021-13.431-1.046-19.597 0.116-3.409-6.688-7.071-14.107-9.2-21.296-4.746-0.314-9.6 0.148-14.345 0.36-8.413 0.374-17.068 0.743-25.48 0.259 1.841-7.07 5.429-14.751 8.938-21.165q4.703-0.439 9.425-0.547c2.307-0.055 4.866 0.199 7.123-0.289 0.959-0.208 1.684-0.351 2.227-1.176 0.054-2.953-2.075-6.132-3.385-8.713-1.862-3.813-8.236-19.149-10.555-21.266l-0.75 0.155c-0.966 0.851-1.62 1.851-2.237 2.969-2.761 5.011-4.943 10.475-7.557 15.588-4.575 8.949-9.743 17.919-13.619 27.183-3.88 9.272-6.429 19.266-10.866 28.312l-0.23 0.463c-6.677-1.271-12.947-1.004-19.688-0.574 2.247-6.932 4.561-13.935 7.182-20.732 1.509-3.915 3.669-7.588 5.357-11.431q9.369-21.813 19.735-43.171c1.431-2.977 3.092-5.839 4.517-8.82l8.844-18.436c1.019-2.085 1.833-4.569 3.113-6.494 0.286-0.431 0.588-0.598 1.047-0.805z"/>
  <path d="m140.98 442.47q4.381 0.14999 8.759 0.37099c0.166 9.175-0.601 18.38-0.532 27.574 0.206 27.572 0.954 55.173 0.981 82.744-6.573-0.33799-13.09-0.695-19.675-0.456q-0.517-18.078-0.209-36.161c0.129-9.79 0.936-20.182-0.543-29.887-2.029 2.37-3.696 5.053-5.611 7.516-2.2689 2.917-4.7219 5.687-6.9594 8.63-2.5399 3.341-4.8502 6.856-7.3431 10.233-3.2278 4.372-6.6365 8.275-8.8752 13.287-3.3144-7.495-9.2256-13.141-14.314-19.444q-7.6671-9.549-15.091-19.288c-1.4094 6.523-1.152 13.463-1.172 20.107-0.097 14.999 0.7703 29.992 0.3963 44.994-6.3214-0.251-12.51-0.586-18.82 0.115-0.2973-5.175-0.2535-10.422-0.3945-15.609-0.5931-21.819-0.2739-43.518 0.1619-65.329 0.1911-9.561-0.1531-19.13 0.1149-28.681 2.3322-0.027 4.4657 0.198 6.7468 0.69 2.1569 1.916 3.9323 4.314 5.8737 6.447 7.534 8.277 14.427 16.956 21.446 25.67 4.281 5.316 8.6378 12.914 14.774 16.19 4.1439-3.778 7.4588-8.457 10.871-12.878l14.292-18.611c4.856-6.23 10.324-11.906 15.122-18.224z"/>
  <path d="m218.43 444.28c0.09-0.013 0.179-0.03 0.269-0.04 13.113-1.449 26.771 3.73 37.17 11.533 11.455 8.596 18.925 20.608 20.933 34.836 2 14.174-0.954 27.836-9.648 39.37-9.245 12.267-22.173 20.043-37.402 22.215-13.246 1.223-26.869-3.173-37.45-11.206-11.933-9.06-18.703-21.737-20.724-36.484-2.024-14.776 1.179-28.864 10.287-40.722 8.264-10.757 23.269-17.753 36.565-19.502z"/>
 </g>
 <path d="m223.85 464.9c7.844 0.07 16.262 2.722 22.391 7.719 6.411 5.227 10.181 13.002 11.01 21.156q0.09 0.813 0.138 1.63 0.049 0.81599 0.056 1.634 8e-3 0.818-0.026 1.636-0.033 0.817-0.108 1.632-0.075 0.814-0.191 1.624-0.115 0.81-0.271 1.613-0.157 0.803-0.353 1.597-0.196 0.795-0.433 1.578-0.236 0.783-0.511 1.553-0.275 0.771-0.589 1.526-0.313 0.756-0.665 1.495-0.351 0.739-0.739 1.459t-0.812 1.42q-0.423 0.7-0.882 1.378-0.458 0.677-0.95 1.331t-1.016 1.282q-0.579 0.701-1.193 1.374-0.613 0.672-1.258 1.313-0.645 0.642-1.322 1.251-0.676 0.609-1.381 1.184t-1.437 1.115q-0.733 0.539-1.491 1.043-0.758 0.503-1.54 0.968-0.782 0.466-1.586 0.892-0.803 0.427-1.627 0.814-0.824 0.386-1.665 0.732-0.842 0.346-1.7 0.65-0.857 0.304-1.729 0.566-0.872 0.261-1.755 0.48t-1.776 0.394-1.794 0.306q-0.9 0.131-1.806 0.218c-8.538-0.165-15.8-2.441-22.371-8.1-6.87-5.918-10.842-13.996-11.432-23.057-0.595-9.124 2.447-17.769 8.571-24.588 6.23-6.937 15.069-10.283 24.243-10.818z" fill="#1f232b"/>
</svg>
